<svg width="36" height="36" viewBox="0 0 36 36" fill="none" xmlns="http://www.w3.org/2000/svg">
<path d="M19.5013 28.5V11.745L26.8213 19.065C27.4063 19.65 28.3663 19.65 28.9513 19.065C29.5363 18.48 29.5363 17.535 28.9513 16.95L19.0663 7.065C18.9275 6.92594 18.7627 6.81562 18.5812 6.74035C18.3998 6.66508 18.2053 6.62634 18.0088 6.62634C17.8124 6.62634 17.6178 6.66508 17.4364 6.74035C17.2549 6.81562 17.0901 6.92594 16.9513 7.065L7.05131 16.935C6.91244 17.0739 6.80228 17.2387 6.72712 17.4202C6.65196 17.6016 6.61328 17.7961 6.61328 17.9925C6.61328 18.1889 6.65196 18.3834 6.72712 18.5648C6.80228 18.7463 6.91244 18.9111 7.05131 19.05C7.19018 19.1889 7.35505 19.299 7.5365 19.3742C7.71794 19.4493 7.91242 19.488 8.10881 19.488C8.30521 19.488 8.49968 19.4493 8.68113 19.3742C8.86257 19.299 9.02744 19.1889 9.16631 19.05L16.5013 11.745V28.5C16.5013 29.325 17.1763 30 18.0013 30C18.8263 30 19.5013 29.325 19.5013 28.5Z" fill="white"/>
</svg>
