<svg width="30" height="30" viewBox="0 0 30 30" fill="none" xmlns="http://www.w3.org/2000/svg">
<path d="M6.25 16.25H20.2125L14.1125 22.35C13.625 22.8375 13.625 23.6375 14.1125 24.125C14.6 24.6125 15.3875 24.6125 15.875 24.125L24.1125 15.8875C24.2284 15.7718 24.3203 15.6345 24.383 15.4833C24.4458 15.332 24.4781 15.1699 24.4781 15.0062C24.4781 14.8425 24.4458 14.6804 24.383 14.5292C24.3203 14.378 24.2284 14.2406 24.1125 14.125L15.8875 5.87497C15.7718 5.75925 15.6344 5.66745 15.4832 5.60482C15.332 5.54218 15.1699 5.50995 15.0063 5.50995C14.8426 5.50995 14.6805 5.54218 14.5293 5.60482C14.3781 5.66745 14.2407 5.75925 14.125 5.87497C14.0093 5.9907 13.9175 6.12809 13.8548 6.2793C13.7922 6.4305 13.76 6.59256 13.76 6.75622C13.76 6.91989 13.7922 7.08195 13.8548 7.23315C13.9175 7.38436 14.0093 7.52175 14.125 7.63747L20.2125 13.75H6.25C5.5625 13.75 5 14.3125 5 15C5 15.6875 5.5625 16.25 6.25 16.25Z" fill="white"/>
</svg>
