<svg width="19" height="15" viewBox="0 0 19 15" fill="none" xmlns="http://www.w3.org/2000/svg">
<path d="M1.02056 6.14425C0.468393 6.1329 0.0115668 6.57131 0.000211418 7.12348C-0.011144 7.67565 0.427271 8.13248 0.979439 8.14383L1 7.14404L1.02056 6.14425ZM18.6924 8.21515C19.0909 7.83273 19.1039 7.1997 18.7215 6.80123L12.4897 0.307768C12.1073 -0.0907033 11.4743 -0.103722 11.0758 0.278691C10.6773 0.661103 10.6643 1.29413 11.0467 1.69261L16.5861 7.46457L10.8141 13.0039C10.4156 13.3863 10.4026 14.0194 10.785 14.4178C11.1675 14.8163 11.8005 14.8293 12.199 14.4469L18.6924 8.21515ZM1 7.14404L0.979439 8.14383L17.9794 8.49344L18 7.49365L18.0206 6.49386L1.02056 6.14425L1 7.14404Z" fill="#ED354F"/>
</svg>
