<svg width="17" height="18" viewBox="0 0 17 18" fill="none" xmlns="http://www.w3.org/2000/svg">
<path d="M16.7062 8.92226C16.7627 8.46606 16.791 8.00049 16.791 7.5254C16.791 6.02505 16.4664 4.7128 15.8221 3.58865C15.173 2.46926 14.2417 1.58511 13.0282 0.950175C11.8101 0.315086 10.3426 0 8.61654 0C6.89031 0 5.31472 0.362226 4.01659 1.08653C2.72323 1.81559 1.73083 2.84561 1.03939 4.18596C0.343338 5.52647 0 7.11619 0 8.95527C0 10.7942 0.305715 12.3087 0.917157 13.6398C1.53321 14.966 2.47386 15.9962 3.74388 16.7205C5.01836 17.4494 6.63173 17.8117 8.58352 17.8117C10.2156 17.8117 11.6361 17.5859 12.8401 17.1297C13.0941 17.0356 13.3339 16.9321 13.5597 16.8145L16.4335 13.4939C16.5605 13.0377 16.6216 12.5439 16.6216 12.0218V11.6785H11.5796V11.8855C11.5796 12.4076 11.3444 12.7885 10.8836 13.0236C10.4178 13.2635 9.67005 13.3858 8.6494 13.3858C7.62874 13.3858 6.83395 13.2447 6.26474 12.9766C5.70044 12.7038 5.30536 12.2711 5.09361 11.6785C4.93376 11.2363 4.83027 10.6955 4.78804 10.0464H16.551C16.5981 9.75006 16.6499 9.37385 16.7062 8.92226ZM11.8806 6.94682H4.83026C4.93376 6.20378 5.17361 5.60171 5.54996 5.14075C6.07204 4.50581 7.03618 4.18596 8.44717 4.18596C9.2656 4.18596 9.93816 4.30834 10.4744 4.54343C11.0058 4.78328 11.3915 5.12201 11.6314 5.56409C11.8384 5.94981 11.9182 6.40601 11.8806 6.94682Z" fill="#010136"/>
</svg>
