<svg width="24" height="40" viewBox="0 0 24 40" fill="none" xmlns="http://www.w3.org/2000/svg">
<path fill-rule="evenodd" clip-rule="evenodd" d="M15.5445 19.8341V20.2057C16.3583 20.5632 17.1107 20.9911 17.7928 21.4803C21.6354 24.2412 23.5873 29.1656 23.5873 36.1076V39.6823H16.932V35.2187C16.932 31.1551 15.9726 28.0979 14.0771 26.1412C12.1676 24.1847 9.34545 23.2346 5.44171 23.2346H0V16.7816H5.44171C9.35957 16.7816 12.1863 15.8315 14.0913 13.8749C15.9819 11.9183 16.9461 8.86113 16.9461 4.81153V0H23.6015V3.90378C23.6015 10.8601 21.6495 15.7845 17.8069 18.5453C17.1248 19.0345 16.3723 19.4673 15.5586 19.82L15.5445 19.8341Z" fill="#ED354F"/>
</svg>
