<svg width="24" height="40" viewBox="0 0 24 40" fill="none" xmlns="http://www.w3.org/2000/svg">
<path fill-rule="evenodd" clip-rule="evenodd" d="M8.11335 19.8341V20.2057C7.29492 20.5632 6.533 20.9911 5.84632 21.4803C1.96608 24.2412 0 29.1514 0 36.1076V39.6823H6.71174V35.2187C6.71174 31.1551 7.68064 28.0979 9.59021 26.1412C11.5139 24.1847 14.3641 23.2346 18.3196 23.2346H23.8085V16.7816H18.3196C14.3641 16.7816 11.5185 15.8315 9.59021 13.8749C7.68064 11.9183 6.71174 8.86113 6.71174 4.81153V0H0V3.90378C0 10.8601 1.97068 15.7845 5.84632 18.5453C6.533 19.0345 7.29492 19.4673 8.11335 19.82V19.8341Z" fill="#ED354F"/>
</svg>
