<svg width="18" height="18" viewBox="0 0 18 18" fill="none" xmlns="http://www.w3.org/2000/svg">
<path d="M5.07471 0V9.84418C5.07471 11.0483 5.31932 11.8855 5.80853 12.3652C6.29299 12.8403 7.17254 13.0801 8.44702 13.0801C9.26544 13.0801 9.93324 12.9766 10.4553 12.7696C10.9774 12.5674 11.3585 12.2195 11.5984 11.735C11.8334 11.2458 11.9558 10.5685 11.9558 9.70783V3.01974L11.9554 3.01959V0H17.0308V17.1297H12.2944V14.1336H12.125C11.8053 14.7921 11.3866 15.3707 10.8645 15.8692C10.3424 16.3724 9.71227 16.7628 8.97385 17.045C8.23542 17.3318 7.3654 17.4731 6.36823 17.4731C4.89138 17.4731 3.67786 17.1767 2.72307 16.5888C1.76829 15.9962 1.07701 15.2013 0.644299 14.2043C0.216351 13.2025 0 12.0923 0 10.8648V5.55473L4.80201 0H5.07471Z" fill="#010136"/>
</svg>
