<svg width="17" height="18" viewBox="0 0 17 18" fill="none" xmlns="http://www.w3.org/2000/svg">
<path d="M8.44728 0C10.1311 0 11.5421 0.286837 12.6897 0.865418C13.8373 1.44385 14.6981 2.28116 15.2766 3.36769C15.8551 4.45883 16.1467 5.77584 16.1467 7.31842V17.4683H11.4103V15.1543H11.2082C10.9119 15.5634 10.5074 15.9726 9.99944 16.3818C9.48678 16.791 8.85651 17.1297 8.10868 17.4025C7.36086 17.6753 6.44836 17.8115 5.3854 17.8115C3.86153 17.8115 2.5869 17.4118 1.55216 16.617C0.517427 15.8221 7.64803e-06 14.6557 0 13.1082C0 12.2241 0.211669 11.4526 0.63025 10.7942C1.05355 10.1358 1.66502 9.59958 2.46928 9.17624C3.27825 8.75765 4.2707 8.45669 5.45123 8.2732L11.3117 7.40778V6.84348C11.3117 5.84632 11.0483 5.19726 10.5262 4.9009C10.0042 4.60931 9.23747 4.45868 8.21215 4.45868C7.18685 4.45868 6.44842 4.62804 5.99691 4.97138C5.54067 5.31012 5.31492 5.91219 5.31492 6.77761V7.14905H0.446859V6.77761C0.446859 5.41361 0.780815 4.21883 1.44869 3.19817C2.12127 2.17767 3.05253 1.38734 4.24246 0.832405C5.4324 0.277471 6.76348 0 8.44728 0ZM6.40598 11.4761C5.88394 11.5655 5.4982 11.702 5.24894 11.8853C4.99501 12.0688 4.87273 12.3369 4.87271 12.7038C4.87271 13.1552 5.05623 13.4751 5.41839 13.6538C5.78054 13.8373 6.33547 13.9265 7.08797 13.9265C7.78876 13.9265 8.46611 13.842 9.11517 13.6727C9.75953 13.5033 10.2863 13.1835 10.6955 12.7177C11.1 12.2569 11.307 11.589 11.3117 10.7094L6.40598 11.4761Z" fill="#010136"/>
</svg>
