<svg width="17" height="18" viewBox="0 0 17 18" fill="none" xmlns="http://www.w3.org/2000/svg">
<path d="M16.7064 8.92226C16.7629 8.46606 16.791 8.00049 16.791 7.5254C16.791 6.02505 16.4665 4.7128 15.8221 3.58865C15.173 2.46926 14.2419 1.58511 13.0284 0.950175C11.8149 0.315086 10.3428 0 8.61654 0C6.89047 0 5.31488 0.362226 4.02136 1.08653C2.72324 1.81559 1.73083 2.84561 1.03954 4.18596C0.348102 5.52647 0 7.11619 0 8.95527C0 10.7942 0.305723 12.3087 0.921925 13.6398C1.53337 14.966 2.47402 15.9962 3.74865 16.7205C5.01852 17.4494 6.63174 17.8117 8.58368 17.8117C10.2204 17.8117 11.6361 17.5859 12.8403 17.1297C13.0801 17.0404 13.3106 16.9415 13.527 16.8334L16.4431 13.4611C16.5653 13.0143 16.6218 12.5346 16.6218 12.0218V11.6785H11.5798V11.8855C11.5798 12.4076 11.3493 12.7885 10.8836 13.0236C10.418 13.2635 9.67482 13.3858 8.64955 13.3858C7.62414 13.3858 6.83412 13.2447 6.26966 12.9766C5.7006 12.7038 5.31012 12.2711 5.09376 11.6785C4.93392 11.2363 4.83042 10.6955 4.78804 10.0464H16.5559C16.5981 9.75006 16.6499 9.37385 16.7064 8.92226ZM11.8807 6.94682H4.83042C4.93391 6.20378 5.17376 5.60171 5.55472 5.14075C6.07204 4.50581 7.04095 4.18596 8.44733 4.18596C9.2656 4.18596 9.93831 4.30834 10.4745 4.54343C11.006 4.78328 11.3917 5.12201 11.6315 5.56409C11.8384 5.94981 11.9184 6.40601 11.8807 6.94682Z" fill="#010136"/>
</svg>
