<svg width="18" height="18" viewBox="0 0 18 18" fill="none" xmlns="http://www.w3.org/2000/svg">
<path d="M10.6956 0C12.1912 0 13.4047 0.291598 14.336 0.884153C15.2672 1.4721 15.9538 2.2764 16.4007 3.28293C16.8427 4.29422 17.0639 5.40409 17.0639 6.60348V17.4683H11.9512V7.6289C11.9512 6.4484 11.7161 5.61108 11.2364 5.12202C10.7613 4.63756 9.8772 4.39295 8.58383 4.39295C7.7654 4.39295 7.10221 4.49169 6.58951 4.69868C6.07695 4.9009 5.69584 5.24901 5.44662 5.73807C5.19741 6.22728 5.07503 6.89984 5.07503 7.7651V17.4683H0V0.338584H4.73169V3.33468H4.93852C5.25376 2.67625 5.66774 2.09767 6.18029 1.59908C6.693 1.1005 7.32333 0.705572 8.07112 0.423344C8.81892 0.141117 9.6937 0 10.6956 0Z" fill="#010136"/>
</svg>
