<svg width="18" height="24" viewBox="0 0 18 24" fill="none" xmlns="http://www.w3.org/2000/svg">
<path d="M17.6752 0V15.0508L17.6761 15.0507L17.6752 15.0516V22.8207H12.9436V20.5248L12.0933 21.5084C12.09 21.5113 10.3326 23.1499 8.57985 23.0888C8.57954 23.0888 8.57938 23.0886 8.57908 23.0886L8.57892 23.0888H8.56956C8.20272 23.1405 7.82161 23.164 7.42191 23.164C5.01853 23.164 3.17944 22.3502 1.90481 20.7276C0.63494 19.105 0 17.0026 0 14.2748C0 11.5468 0.653823 9.37846 1.95655 7.76986C3.26404 6.15665 5.0844 5.35234 7.42191 5.35234C8.76242 5.35234 9.83006 5.60171 10.6248 6.10014C11.4198 6.59872 12.0123 7.21016 12.3981 7.93923H12.6004V0H17.6752ZM8.85654 9.70768C8.10398 9.70768 7.48778 9.80181 6.99857 9.98054C6.50951 10.1639 6.12379 10.4415 5.84156 10.8177C5.55473 11.1893 5.35711 11.669 5.24424 12.2474C5.13138 12.826 5.07503 13.5033 5.07503 14.2748C5.07503 15.046 5.13138 15.7232 5.24424 16.3018C5.35711 16.8802 5.56409 17.3507 5.85569 17.7128C6.15189 18.075 6.54237 18.3479 7.03159 18.5312C7.52065 18.7147 8.12747 18.8041 8.85654 18.8041C9.65132 18.8041 10.3286 18.6958 10.8977 18.4795C11.4668 18.2631 11.8901 17.9244 12.1771 17.4588C12.4417 17.0223 12.5822 16.4618 12.5987 15.7773L12.6004 15.6386V12.8777L12.5987 12.7349C12.5822 12.03 12.4417 11.462 12.1771 11.0387C11.8901 10.5825 11.4668 10.2486 10.8977 10.0323C10.3286 9.81593 9.65132 9.70768 8.85654 9.70768Z" fill="#010136"/>
</svg>
